<svg xmlns="http://www.w3.org/2000/svg" style="transform:rotate(180deg);transition:.3s" viewBox="0 0 1440 100"><defs><linearGradient id="a" x1="0" x2="0" y1="1" y2="0"><stop offset="0%" stop-color="rgba(36, 39, 49, 1)"/><stop offset="100%" stop-color="rgba(36, 39, 49, 1)"/></linearGradient></defs><path fill="url(#a)" d="m0 30 60 8.3C120 47 240 63 360 61.7 480 60 600 40 720 41.7 840 43 960 67 1080 65s240-28 360-36.7c120-8.3 240 1.7 360 6.7s240 5 360 13.3c120 8.7 240 24.7 360 25C2640 73 2760 57 2880 55s240 12 360 8.3c120-3.3 240-23.3 360-31.6 120-8.7 240-4.7 360-5 120 .3 240-3.7 360 6.6C4440 43 4560 67 4680 65c120-2 240-28 360-36.7 120-8.3 240 1.7 360 15C5520 57 5640 73 5760 76.7c120 3.3 240-6.7 360-13.4C6240 57 6360 53 6480 50s240-7 360-3.3C6960 50 7080 60 7200 55s240-25 360-26.7c120-1.3 240 14.7 360 28.4C8040 70 8160 80 8280 80s240-10 300-15l60-5v40H0Z" style="transform:translate(0,0);opacity:1"/></svg>