<?xml version="1.0" standalone="no"?>
<svg xmlns:xlink="http://www.w3.org/1999/xlink" id="wave" style="transform:rotate(180deg); transition: 0.3s" viewBox="0 0 1440 100" version="1.1" xmlns="http://www.w3.org/2000/svg"><defs><linearGradient id="sw-gradient-0" x1="0" x2="0" y1="1" y2="0"><stop stop-color="rgba(36, 39, 49, 1)" offset="0%"/><stop stop-color="rgba(36, 39, 49, 1)" offset="100%"/></linearGradient></defs><path style="transform:translate(0, 0px); opacity:1" fill="url(#sw-gradient-0)" d="M0,30L60,38.3C120,47,240,63,360,61.7C480,60,600,40,720,41.7C840,43,960,67,1080,65C1200,63,1320,37,1440,28.3C1560,20,1680,30,1800,35C1920,40,2040,40,2160,48.3C2280,57,2400,73,2520,73.3C2640,73,2760,57,2880,55C3000,53,3120,67,3240,63.3C3360,60,3480,40,3600,31.7C3720,23,3840,27,3960,26.7C4080,27,4200,23,4320,33.3C4440,43,4560,67,4680,65C4800,63,4920,37,5040,28.3C5160,20,5280,30,5400,43.3C5520,57,5640,73,5760,76.7C5880,80,6000,70,6120,63.3C6240,57,6360,53,6480,50C6600,47,6720,43,6840,46.7C6960,50,7080,60,7200,55C7320,50,7440,30,7560,28.3C7680,27,7800,43,7920,56.7C8040,70,8160,80,8280,80C8400,80,8520,70,8580,65L8640,60L8640,100L8580,100C8520,100,8400,100,8280,100C8160,100,8040,100,7920,100C7800,100,7680,100,7560,100C7440,100,7320,100,7200,100C7080,100,6960,100,6840,100C6720,100,6600,100,6480,100C6360,100,6240,100,6120,100C6000,100,5880,100,5760,100C5640,100,5520,100,5400,100C5280,100,5160,100,5040,100C4920,100,4800,100,4680,100C4560,100,4440,100,4320,100C4200,100,4080,100,3960,100C3840,100,3720,100,3600,100C3480,100,3360,100,3240,100C3120,100,3000,100,2880,100C2760,100,2640,100,2520,100C2400,100,2280,100,2160,100C2040,100,1920,100,1800,100C1680,100,1560,100,1440,100C1320,100,1200,100,1080,100C960,100,840,100,720,100C600,100,480,100,360,100C240,100,120,100,60,100L0,100Z"/></svg>